<svg fill="#ffffff" xmlns="http://www.w3.org/2000/svg"  viewBox="0 0 64 64" width="128px" height="128px"><path d="M 26.070313 4 C 25.066406 4 24.128906 4.5 23.574219 5.335938 L 20.464844 10 L 3 10 C 1.34375 10 0 11.34375 0 13 L 0 22.800781 C 0 24.425781 0.773438 25.867188 2 26.785156 L 2 52 C 2 54.210938 3.789063 56 6 56 L 58 56 C 60.210938 56 62 54.210938 62 52 L 62 26.785156 C 63.226563 25.867188 64 24.425781 64 22.800781 L 64 13 C 64 11.34375 62.65625 10 61 10 L 43.535156 10 L 40.425781 5.335938 C 39.871094 4.5 38.933594 4 37.929688 4 Z M 26.070313 6 L 37.929688 6 C 38.265625 6 38.574219 6.167969 38.761719 6.445313 L 41.128906 10 L 22.871094 10 L 25.238281 6.445313 C 25.425781 6.167969 25.734375 6 26.070313 6 Z M 3 12 L 61 12 C 61.550781 12 62 12.449219 62 13 L 62 14 C 61.449219 14 61 14.445313 61 15 L 61 17 C 61 17.554688 61.449219 18 62 18 L 62 22.800781 C 62 24.214844 61.039063 25.417969 59.660156 25.730469 L 36 31.070313 L 36 31 C 36 29.898438 35.101563 29 34 29 L 30 29 C 28.898438 29 28 29.898438 28 31 L 28 31.070313 L 4.339844 25.730469 C 2.960938 25.417969 2 24.214844 2 22.800781 L 2 18 C 2.550781 18 3 17.554688 3 17 L 3 15 C 3 14.445313 2.550781 14 2 14 L 2 13 C 2 12.449219 2.449219 12 3 12 Z M 7 14 C 6.449219 14 6 14.445313 6 15 L 6 17 C 6 17.554688 6.449219 18 7 18 C 7.550781 18 8 17.554688 8 17 L 8 15 C 8 14.445313 7.550781 14 7 14 Z M 12 14 C 11.449219 14 11 14.445313 11 15 L 11 17 C 11 17.554688 11.449219 18 12 18 C 12.550781 18 13 17.554688 13 17 L 13 15 C 13 14.445313 12.550781 14 12 14 Z M 17 14 C 16.449219 14 16 14.445313 16 15 L 16 17 C 16 17.554688 16.449219 18 17 18 C 17.550781 18 18 17.554688 18 17 L 18 15 C 18 14.445313 17.550781 14 17 14 Z M 22 14 C 21.449219 14 21 14.445313 21 15 L 21 17 C 21 17.554688 21.449219 18 22 18 C 22.550781 18 23 17.554688 23 17 L 23 15 C 23 14.445313 22.550781 14 22 14 Z M 27 14 C 26.449219 14 26 14.445313 26 15 L 26 17 C 26 17.554688 26.449219 18 27 18 C 27.550781 18 28 17.554688 28 17 L 28 15 C 28 14.445313 27.550781 14 27 14 Z M 32 14 C 31.449219 14 31 14.445313 31 15 L 31 17 C 31 17.554688 31.449219 18 32 18 C 32.550781 18 33 17.554688 33 17 L 33 15 C 33 14.445313 32.550781 14 32 14 Z M 37 14 C 36.449219 14 36 14.445313 36 15 L 36 17 C 36 17.554688 36.449219 18 37 18 C 37.550781 18 38 17.554688 38 17 L 38 15 C 38 14.445313 37.550781 14 37 14 Z M 42 14 C 41.449219 14 41 14.445313 41 15 L 41 17 C 41 17.554688 41.449219 18 42 18 C 42.550781 18 43 17.554688 43 17 L 43 15 C 43 14.445313 42.550781 14 42 14 Z M 47 14 C 46.449219 14 46 14.445313 46 15 L 46 17 C 46 17.554688 46.449219 18 47 18 C 47.550781 18 48 17.554688 48 17 L 48 15 C 48 14.445313 47.550781 14 47 14 Z M 52 14 C 51.449219 14 51 14.445313 51 15 L 51 17 C 51 17.554688 51.449219 18 52 18 C 52.550781 18 53 17.554688 53 17 L 53 15 C 53 14.445313 52.550781 14 52 14 Z M 57 14 C 56.449219 14 56 14.445313 56 15 L 56 17 C 56 17.554688 56.449219 18 57 18 C 57.550781 18 58 17.554688 58 17 L 58 15 C 58 14.445313 57.550781 14 57 14 Z M 60 27.703125 L 60 52 C 60 53.105469 59.105469 54 58 54 L 6 54 C 4.894531 54 4 53.105469 4 52 L 4 27.703125 L 28 33.125 L 28 37 C 28 38.105469 28.894531 39 30 39 L 34 39 C 35.105469 39 36 38.105469 36 37 L 36 33.121094 Z M 30 31 L 34 31 L 34 37 L 30 37 Z M 7 48 C 6.449219 48 6 48.445313 6 49 C 6 49.554688 6.449219 50 7 50 L 49 50 C 49.550781 50 50 49.554688 50 49 C 50 48.445313 49.550781 48 49 48 Z M 53 48 C 52.449219 48 52 48.445313 52 49 C 52 49.554688 52.449219 50 53 50 L 57 50 C 57.550781 50 58 49.554688 58 49 C 58 48.445313 57.550781 48 57 48 Z"/></svg>